<svg width="512" height="512" viewBox="0 0 512 512" fill="none" xmlns="http://www.w3.org/2000/svg">
<path d="M224.109 123.631L33.0352 337.779" stroke="white" stroke-width="9.77554"/>
<path d="M433.59 168.742L33.0352 337.779" stroke="white" stroke-width="9.77554"/>
<path d="M226.964 391.963L32.5195 338.037" stroke="white" stroke-width="9.77554"/>
<path d="M229.294 121.555L166.812 284.11" stroke="white" stroke-width="9.77554"/>
<path d="M236.554 387.813L168.109 282.035" stroke="white" stroke-width="9.77554"/>
<path d="M228.777 114.557L434.11 153.445" stroke="white" stroke-width="9.77554"/>
<path d="M228.258 112.221L417.776 263.628" stroke="white" stroke-width="9.77554"/>
<path d="M448.113 184.037L417.262 264.407" stroke="white" stroke-width="9.77554"/>
<path d="M231.633 110.406L242.003 398.702" stroke="white" stroke-width="9.77554"/>
<path d="M441.106 176.256L240.699 397.922" stroke="white" stroke-width="9.77554"/>
<path d="M404.296 274L249.777 390.407" stroke="white" stroke-width="9.77554"/>
<circle cx="460.814" cy="157.853" r="40.1851" fill="#FFC107"/>
<circle cx="241.612" cy="391.054" r="29.9444" fill="#2196F4"/>
<circle cx="232.019" cy="113.648" r="21.6481" fill="#F34335"/>
<circle cx="167.207" cy="280.867" r="21.6481" fill="#9C27AF"/>
<circle cx="32.6481" cy="338.687" r="21.6481" fill="#F34335"/>
<circle cx="417.644" cy="267.129" r="21.6481" fill="#8BC349"/>
</svg>
