<svg width="299" height="402" viewBox="0 0 299 402" fill="none" xmlns="http://www.w3.org/2000/svg">
<path d="M134.663 71.4746L26.375 192.84" stroke="white" stroke-width="5.54015"/>
<path d="M253.384 97.0371L26.375 192.836" stroke="white" stroke-width="5.54015"/>
<path d="M136.277 223.548L26.0781 192.986" stroke="white" stroke-width="5.54015"/>
<path d="M137.598 70.2988L102.188 162.425" stroke="white" stroke-width="5.54015"/>
<path d="M141.716 221.194L102.926 161.246" stroke="white" stroke-width="5.54015"/>
<path d="M137.309 66.3301L253.678 88.3698" stroke="white" stroke-width="5.54015"/>
<path d="M137.016 65.0059L244.422 150.814" stroke="white" stroke-width="5.54015"/>
<path d="M261.614 105.709L244.129 151.258" stroke="white" stroke-width="5.54015"/>
<path d="M138.922 63.9805L144.799 227.368" stroke="white" stroke-width="5.54015"/>
<path d="M257.636 101.297L144.059 226.923" stroke="white" stroke-width="5.54015"/>
<path d="M236.778 156.693L149.207 222.665" stroke="white" stroke-width="5.54015"/>
<circle cx="268.806" cy="90.87" r="22.7743" fill="#FFC107"/>
<circle cx="144.58" cy="223.031" r="16.9705" fill="#2196F4"/>
<circle cx="139.14" cy="65.8156" r="12.2688" fill="#F34335"/>
<circle cx="102.413" cy="160.581" r="12.2688" fill="#9C27AF"/>
<circle cx="26.1516" cy="193.355" r="12.2688" fill="#F34335"/>
<circle cx="244.339" cy="152.796" r="12.2688" fill="#8BC349"/>
<path d="M7.56775 284.221V321H16.1199V297.705L24.672 317.327H30.968L39.5201 297.705L39.5726 321H48.0722V284.221H37.5789L27.82 305.68L18.0611 284.221H7.56775ZM55.2184 284.221V321H84.7573V313.34H64.8199V306.414L82.3438 306.362V298.754H64.8199V291.881H84.2326V284.221H55.2184ZM115.965 295.554L119.585 287.946C115.755 285.48 110.298 283.801 104.894 283.801C96.0274 283.801 90.2036 288.156 90.2036 295.029C90.2036 308.041 109.564 304.263 109.564 310.507C109.564 312.448 107.78 313.497 104.947 313.497C101.117 313.497 95.3978 311.189 91.6202 307.936L87.8951 315.439C92.3023 319.059 98.7033 321.315 104.842 321.315C113.027 321.315 119.638 317.485 119.638 309.982C119.638 296.76 100.277 300.223 100.277 294.137C100.277 292.458 101.799 291.619 104.107 291.619C107.15 291.619 112.082 293.35 115.965 295.554ZM142.066 283.958C130.681 283.958 122.181 291.881 122.181 302.584C122.181 313.34 130.681 321.42 142.066 321.42C153.452 321.42 161.951 313.34 161.951 302.584C161.951 291.933 153.452 283.958 142.066 283.958ZM142.171 292.143C147.68 292.143 152.088 296.655 152.088 302.637C152.088 308.618 147.68 313.235 142.171 313.235C136.715 313.235 132.045 308.618 132.045 302.637C132.045 296.655 136.662 292.143 142.171 292.143ZM166.711 284.221V321H175.683V298.964L192.367 321H200.762V284.221H191.842V306.362L175.158 284.221H166.711ZM210.79 312.343C208.167 312.343 206.33 314.179 206.33 316.855C206.33 319.531 208.167 321.42 210.79 321.42C213.413 321.42 215.302 319.531 215.302 316.855C215.302 314.179 213.413 312.343 210.79 312.343ZM7.56775 339.221V376H16.5396V353.964L33.2241 376H41.6188V339.221H32.6994V361.362L16.0149 339.221H7.56775ZM48.8137 339.221V376H78.3526V368.34H58.4152V361.414L75.9392 361.362V353.754H58.4152V346.881H77.828V339.221H48.8137ZM81.0182 339.221V347.143H91.9313V376H101.533V347.143H112.551V339.221H81.0182ZM112.774 339.221L124.842 376H134.705L141.526 351.183L148.137 376H158.053L170.173 339.221H160.309L153.384 365.821L146.406 339.221H137.014L130.088 365.821L123.11 339.221H112.774ZM190.793 338.958C179.408 338.958 170.908 346.881 170.908 357.584C170.908 368.34 179.408 376.42 190.793 376.42C202.178 376.42 210.678 368.34 210.678 357.584C210.678 346.933 202.178 338.958 190.793 338.958ZM190.898 347.143C196.407 347.143 200.814 351.655 200.814 357.637C200.814 363.618 196.407 368.235 190.898 368.235C185.441 368.235 180.772 363.618 180.772 357.637C180.772 351.655 185.389 347.143 190.898 347.143ZM248.387 376L240.726 363.985C244.976 361.781 247.285 357.689 247.285 352.128C247.285 343.943 241.723 339.221 231.964 339.221H215.437V376H225.039V365.821H231.964H232.174L237.526 376H248.387ZM225.039 346.881H232.017C235.899 346.881 238.155 348.822 238.155 352.442C238.155 356.167 235.899 358.161 232.017 358.161H225.039V346.881ZM288.767 376L274.286 354.436L287.927 339.221H276.804L263.006 354.646V339.221H253.404V376H263.006V367.028L267.728 361.781L277.277 376H288.767Z" fill="white"/>
</svg>
