<svg width="555" height="132" viewBox="0 0 555 132" fill="none" xmlns="http://www.w3.org/2000/svg">
<path d="M85.3691 12.6699L8.82812 98.4539" stroke="white" stroke-width="3.91592"/>
<path d="M169.284 30.7402L8.82812 98.4535" stroke="white" stroke-width="3.91592"/>
<path d="M86.5121 120.16L8.62109 98.5586" stroke="white" stroke-width="3.91592"/>
<path d="M87.443 11.8379L62.4141 76.9548" stroke="white" stroke-width="3.91592"/>
<path d="M90.3512 118.498L62.9336 76.125" stroke="white" stroke-width="3.91592"/>
<path d="M87.2383 9.03516L169.491 24.6134" stroke="white" stroke-width="3.91592"/>
<path d="M87.0312 8.09961L162.949 68.7508" stroke="white" stroke-width="3.91592"/>
<path d="M175.101 36.8672L162.742 69.0621" stroke="white" stroke-width="3.91592"/>
<path d="M88.3828 7.37305L92.537 122.859" stroke="white" stroke-width="3.91592"/>
<path d="M172.295 33.7539L92.0156 122.55" stroke="white" stroke-width="3.91592"/>
<path d="M157.55 72.9043L95.6523 119.535" stroke="white" stroke-width="3.91592"/>
<circle cx="180.191" cy="26.3787" r="16.0975" fill="#FFC107"/>
<circle cx="92.378" cy="119.796" r="11.9952" fill="#2196F4"/>
<circle cx="88.5391" cy="8.67187" r="8.67187" fill="#F34335"/>
<circle cx="62.5703" cy="75.6582" r="8.67187" fill="#9C27AF"/>
<circle cx="8.67187" cy="98.8184" r="8.67187" fill="#F34335"/>
<circle cx="162.895" cy="70.1543" r="8.67187" fill="#8BC349"/>
<path d="M233.447 14.9667V56.1426H243.022V30.0626L252.596 52.0309H259.645L269.219 30.0626L269.278 56.1426H278.794V14.9667H267.046L256.121 38.9909L245.195 14.9667H233.447ZM286.794 14.9667V56.1426H319.864V47.5667H297.543V39.8132L317.162 39.7545V31.2373H297.543V23.5426H319.277V14.9667H286.794ZM354.802 27.6543L358.855 19.1371C354.567 16.3764 348.458 14.4968 342.408 14.4968C332.481 14.4968 325.961 19.3721 325.961 27.0669C325.961 41.6341 347.636 37.4049 347.636 44.3948C347.636 46.5682 345.639 47.7429 342.467 47.7429C338.179 47.7429 331.777 45.1584 327.547 41.5166L323.377 49.9163C328.311 53.9692 335.477 56.495 342.35 56.495C351.513 56.495 358.914 52.2071 358.914 43.8074C358.914 29.0053 337.239 32.882 337.239 26.0683C337.239 24.1887 338.943 23.2489 341.527 23.2489C344.934 23.2489 350.455 25.1872 354.802 27.6543ZM384.024 14.673C371.277 14.673 361.762 23.5426 361.762 35.5253C361.762 47.5667 371.277 56.6125 384.024 56.6125C396.77 56.6125 406.286 47.5667 406.286 35.5253C406.286 23.6013 396.77 14.673 384.024 14.673ZM384.141 23.8362C390.309 23.8362 395.243 28.8878 395.243 35.584C395.243 42.2802 390.309 47.4492 384.141 47.4492C378.032 47.4492 372.805 42.2802 372.805 35.584C372.805 28.8878 377.974 23.8362 384.141 23.8362ZM411.614 14.9667V56.1426H421.658V31.4723L440.337 56.1426H449.735V14.9667H439.75V39.7545L421.071 14.9667H411.614ZM460.962 46.4507C458.025 46.4507 455.97 48.5065 455.97 51.5022C455.97 54.4979 458.025 56.6125 460.962 56.6125C463.899 56.6125 466.014 54.4979 466.014 51.5022C466.014 48.5065 463.899 46.4507 460.962 46.4507ZM233.447 76.9667V118.143H243.492V93.4723L262.171 118.143H271.569V76.9667H261.583V101.754L242.904 76.9667H233.447ZM279.624 76.9667V118.143H312.694V109.567H290.373V101.813L309.992 101.754V93.2373H290.373V85.5426H312.106V76.9667H279.624ZM315.678 76.9667V85.8362H327.896V118.143H338.645V85.8362H350.98V76.9667H315.678ZM351.23 76.9667L364.74 118.143H375.783L383.419 90.3591L390.82 118.143H401.922L415.49 76.9667H404.447L396.694 106.747L388.882 76.9667H378.367L370.614 106.747L362.802 76.9667H351.23ZM438.575 76.673C425.829 76.673 416.313 85.5426 416.313 97.5253C416.313 109.567 425.829 118.612 438.575 118.612C451.321 118.612 460.837 109.567 460.837 97.5253C460.837 85.6013 451.321 76.673 438.575 76.673ZM438.693 85.8362C444.86 85.8362 449.794 90.8878 449.794 97.584C449.794 104.28 444.86 109.449 438.693 109.449C432.584 109.449 427.356 104.28 427.356 97.584C427.356 90.8878 432.525 85.8362 438.693 85.8362ZM503.053 118.143L494.477 104.691C499.235 102.224 501.82 97.6427 501.82 91.4164C501.82 82.2532 495.593 76.9667 484.668 76.9667H466.165V118.143H476.915V106.747H484.668H484.903L490.894 118.143H503.053ZM476.915 85.5426H484.727C489.073 85.5426 491.599 87.7159 491.599 91.7689C491.599 95.9393 489.073 98.1714 484.727 98.1714H476.915V85.5426ZM548.261 118.143L532.049 94.0009L547.321 76.9667H534.868L519.42 94.2359V76.9667H508.671V118.143H519.42V108.098L524.706 102.224L535.397 118.143H548.261Z" fill="white"/>
</svg>
